<?xml version="1.0" encoding="iso-8859-1"?>
<!-- Generator: Adobe Illustrator 20.1.0, SVG Export Plug-In . SVG Version: 6.00 Build 0)  -->
<svg version="1.1" id="Layer_1" xmlns="http://www.w3.org/2000/svg" xmlns:xlink="http://www.w3.org/1999/xlink" x="0px" y="0px"
	 viewBox="0 0 344 63.982" style="enable-background:new 0 0 344 63.982;" xml:space="preserve">
<g>
	<g>
		<path d="M335.889,0.665l-10.391,13.919h-0.321L314.785,0.665h-8.108l15.454,19.66v14.441h6.41V20.325L344,0.665H335.889z
			 M289.865,14.584h-18.481V0.644h-6.392v34.122h6.392V20.521h18.481v14.245h6.381V0.644h-6.381V14.584z M200.135,0.665h-5.942v23.3
			h-0.157l-20.683-23.3h-5.588v34.101h5.925V11.363h0.13l20.901,23.403h5.414V0.665z M150.732,28.847h-21.169v-8.342h15.195v-5.92
			h-15.195V6.496h21.169V0.665h-27.56v34.101h27.56V28.847z M91.141,26.275h-0.17L80.743,0.665h-7.392l15.014,34.101h5.319
			l15.016-34.101h-7.394L91.141,26.275z M52.522,34.766h6.387V0.665h-6.387V34.766z M16.971,22.128h10.945v5.937
			c-1.534,0.533-4.247,1.236-8.646,1.236c-7.813,0-12.136-3.922-12.136-11.588c0-7.662,4.347-11.595,12.136-11.595
			c7.93,0,12,2.457,14.255,4.327V3.598C31.008,1.539,25.357,0,19.268,0C10.181,0,0,3.719,0,17.705
			c0,13.984,10.181,17.709,19.271,17.709c5.527,0,11.311-1.273,14.922-3.563V16.206H16.971V22.128z M215.336,17.705
			c0,13.984,10.175,17.697,19.268,17.697c6.088,0,11.738-1.535,14.256-3.597V24.96c-2.253,1.867-6.328,4.327-14.258,4.327
			c-7.791,0-12.134-3.919-12.134-11.582c0-7.667,4.343-11.586,12.134-11.586c7.93,0,12.004,2.457,14.258,4.327V3.598
			C246.343,1.539,240.693,0,234.604,0C225.511,0,215.336,3.719,215.336,17.705z M138.956,47.225h-5.254v16.411h2.139v-6.707h3.301
			c2.464,0,5.65-0.807,5.65-4.957C144.792,47.638,140.956,47.225,138.956,47.225z M139.142,55.222h-3.301v-6.293h3.301
			c1.536,0,3.511,0.599,3.511,3.157C142.653,54.254,141.235,55.222,139.142,55.222z M155.191,47.225l-6.417,16.411h2.209l1.65-4.381
			h7.603l1.605,4.381h2.303l-6.256-16.411H155.191z M153.237,57.551l2.185-5.671c0.349-0.922,0.675-1.891,1.024-2.813h0.046
			c0.326,0.922,0.629,1.891,0.977,2.813l2.185,5.671H153.237z M181.355,51.626c0-3.018-2.233-4.402-5.068-4.402h-5.699v16.411h2.14
			v-7.423h3.582l3.417,7.423h2.557l-3.951-7.814C179.171,55.545,181.355,54.785,181.355,51.626z M176.099,54.507h-3.371v-5.578
			h3.139c0.954,0,3.349,0.115,3.349,2.86C179.216,53.058,178.518,54.507,176.099,54.507z M189.055,63.636h2.138V47.225h-2.138
			V63.636z M206.335,55.107l-2.978-1.291c-1.067-0.462-2.182-0.97-2.182-2.584c0-1.499,0.856-2.649,2.902-2.649
			c1.187,0,2.583,0.438,2.979,1.98l2.091-0.69c-0.79-2.189-2.72-2.995-5.069-2.995c-2.368,0-5.185,1.29-5.185,4.497
			c0,1.705,0.909,2.879,2.466,3.594l3.999,1.843c0.605,0.277,1.743,0.831,1.743,2.605c0,1.382-1.115,2.858-3.207,2.858
			c-2.211,0-3.14-1.384-3.441-2.536l-2.069,0.759c0.348,1.224,1.694,3.484,5.323,3.484c4.72,0,5.674-3.067,5.674-4.612
			C209.382,56.537,207.359,55.545,206.335,55.107z"/>
	</g>
</g>
</svg>
